<svg id="Layer_1" data-name="Layer 1" xmlns="http://www.w3.org/2000/svg" viewBox="0 0 200.1 151.64"><defs><style>.cls-1{fill:none;}.cls-2{fill:#c6c7ca;}.cls-2,.cls-3,.cls-4,.cls-5,.cls-6,.cls-7{fill-rule:evenodd;}.cls-3{fill:#d8d8d8;}.cls-4{fill:#9b9b9b;fill-opacity:0.3;}.cls-5{fill:#e1e1e1;}.cls-6,.cls-8,.cls-9{fill:#fff;}.cls-7{fill:#54698d;}.cls-8,.cls-9{isolation:isolate;font-family:SalesforceSans-Bold, Salesforce Sans;font-weight:700;}.cls-8{font-size:10px;}.cls-9{font-size:10px;}</style></defs><path class="cls-1" d="M130.2,150.44v.8c.1.4-.5.9-4.7.9h-51c-4.3,0-4.8-.6-4.7-.9v-.8l.8.3h58.9Z" transform="translate(0 -0.5)"/><path class="cls-2" d="M130.2,150.14v.8c.1.4-.5.9-4.7.9h-51c-4.3,0-4.8-.6-4.7-.9v-.8l.8.3h58.9Z" transform="translate(0 -0.5)"/><path class="cls-3" d="M122.5,146.84c1.1,1.6,7.4,2.9,7.4,2.9s1.7,1.2-4.5,1.2h-51c-6.2,0-4.5-1.2-4.5-1.2s6.4-1.3,7.4-2.9,2.9-23.3,2.9-23.3h39.4C119.6,123.64,121.5,145.24,122.5,146.84Z" transform="translate(0 -0.5)"/><path id="a" class="cls-4" d="M3.9.5H196.2a3.9,3.9,0,0,1,3.9,3.9V120.3a3.9,3.9,0,0,1-3.9,3.9H3.9A3.9,3.9,0,0,1,0,120.3V4.3A3.82,3.82,0,0,1,3.9.5Z" transform="translate(0 -0.5)"/><path id="a-2" data-name="a" class="cls-5" d="M3.9.5H196.2a3.9,3.9,0,0,1,3.9,3.9V120.3a3.9,3.9,0,0,1-3.9,3.9H3.9A3.9,3.9,0,0,1,0,120.3V4.3A3.82,3.82,0,0,1,3.9.5Z" transform="translate(0 -0.5)"/><path class="cls-6" d="M6.7,9.4V113.6H193.2V9.4Z" transform="translate(0 -0.5)"/><path class="cls-7" d="M42.32,12.5h148.6v98H42.32Z" transform="translate(0 -0.5)"/><text class="cls-8" transform="translate(113.6 63.84) scale(0.99 1)">2</text><path class="cls-7" d="M9.62,12.56h30v98h-30Z" transform="translate(0 -0.5)"/><text class="cls-9" transform="translate(21.55 63.91)">1</text></svg>